<svg xmlns="http://www.w3.org/2000/svg" width="24.00001" height="24.000031" preserveAspectRatio="xMidYMid"><defs><linearGradient x1="0" y1="116.54461" x2="186.14996" y2="116.54461" id="a" gradientTransform="matrix(.06548 0 0 .11438 0 .00003)" gradientUnits="userSpaceOnUse"><stop stop-color="#FFF" offset="0%"/><stop stop-color="#FFF" stop-opacity=".9576" offset="14.13%"/><stop stop-color="#FFF" stop-opacity=".7" offset="100%"/></linearGradient><linearGradient x1="187.35059" y1="112.26521" x2="373.38791" y2="112.26521" id="b" gradientTransform="matrix(.06428 0 0 .11653 0 .00003)" gradientUnits="userSpaceOnUse"><stop stop-color="#F1F1F2" offset="0%"/><stop stop-color="#E4E5E6" offset="9.191442%"/><stop stop-color="#D9DADB" offset="23.57%"/><stop stop-color="#D2D4D5" offset="43.8%"/><stop stop-color="#D0D2D3" offset="100%"/></linearGradient></defs><path d="M24 7.75769l-.871875-2.00533.6-1.15047c.075-.15179.0375-.31957-.09375-.43941L21.99375 2.74837c-.721875-.61518-1.790625-.8309-2.75625-.54328l-.459375.13582L16.265625.024 12.01875 0h-.02813l-4.275.032-2.503125 2.33289-.45-.13582c-.975-.29561-2.053125-.0799-2.775.55126L.318745 4.21842c-.112495.0959-.14062.23169-.08437.35153L.8625 5.76834 0 7.77367l.5625 1.81358 2.55 8.25299c.290625.95074.965625 1.78163 1.9125 2.35686 0 0 3.09375 1.86152 6.140625 3.54727.271875.1518.553125.25566.853125.25566.3 0 .58125-.10386.853125-.25566 3.43125-1.91744 6.140625-3.55526 6.140625-3.55526.9375-.57523 1.6125-1.40612 1.903125-2.35686l2.53125-8.25299z" fill="#f15a22"/><path d="M3.234375 18.19177L0 7.94943.946875 5.9441l-.65625-1.48601L1.85625 3.0999c.515625-.39148 1.528125-.5273 1.996875-.29561L6.3 4.00269l3.1875.63116 2.484375-.87883.20625 18.19175c-.0375 2.6205.159375 2.34088-2.1 1.10253L4.5 19.86155c-.6-.48735-1.059375-1.03862-1.265625-1.66978z" style="mix-blend-mode:lighten" opacity=".15" fill="url(#a)"/><path d="M18.95625 20.15282l-4.74375 2.76431c-1.321875.61518-1.959375 1.22237-2.0625.92677-.08437-.23169-.01875-.91079-.04687-1.96538l-.05625-17.79228c.0094-.17576.15-.47137.39375-.43941l2.41875.62317 3.4875-.46339 2.30625-1.44607c.24375-.15979.6-.14381.825.0399l2.0625 1.67776c.1875.16778.196875.49534.08438.70306l-.571875.9028.946875 2.08522-3.2625 10.33822c-.50625 1.28628-1.21875 1.62183-1.78125 2.04527z" style="mix-blend-mode:darken" opacity=".4" fill="url(#b)"/><path d="M12.5625 14.76445c-.1125-.0399-.234375-.0719-.271875-.0719h-.3c-.0375 0-.159375.032-.271875.0719L10.5 15.19588c-.1125.04-.3.11185-.4125.15979l-1.8375.81491c-.1125.0479-.121875.13582-.01875.19973l1.621875.9747c.103125.0639.2625.16778.35625.23968l.721875.5273c.09375.0719.24375.18376.3375.25566l.69375.5273c.09375.0719.24375.0719.3375 0l.7125-.5273c.09375-.0719.24375-.18376.3375-.25566l.721875-.53529c.09375-.0719.253125-.17576.35625-.23968L16.05 16.35433c.103125-.0639.09375-.15179-.01875-.19973l-1.8375-.79893c-.1125-.0479-.3-.11984-.4125-.15979z" fill="#fff"/><path d="M21.357497 8.11378c.0375-.10386.0375-.14381.0375-.14381 0-.10386-.0094-.27962-.02812-.38348l-.09375-.2317c-.05625-.0959-.15-.24767-.225-.33555l-1.059375-1.33422c-.06563-.0879-.1875-.2237-.271875-.31158l-1.36875-1.46205c-.075-.0799-.15-.1518-.159375-.14381h-.01875s-.103125.016-.225.0319l-2.090625.35154c-.121875.024-.31875.0559-.440625.0719l-.0375.008c-.121875.016-.31875.008-.440625-.024l-1.753125-.47936c-.121875-.032-.31875-.0799-.43125-.10386 0 0-.35625-.0719-.646875-.0639-.290625 0-.646875.0639-.646875.0639-.121875.024-.31875.0719-.43125.10386l-1.7531252.47936c-.121875.032-.31875.0399-.440625.024l-.0375-.008c-.121875-.016-.31875-.0559-.440625-.0719l-2.109375-.33556c-.121875-.024-.225-.0319-.225-.0319h-.01875c-.00937 0-.084375.0639-.159375.1438l-1.36875 1.46205c-.075.0799-.196875.22371-.271875.31159l-1.059375 1.33422c-.065625.0879-.16875.23968-.225.33555l-.09375.23169c-.01875.10387-.0375.27963-.028125.38349 0 0 0 .032.0375.14381.065625.19175.225.36751.225.36751.075.0799.215625.21571.3.28762l3.103125 2.81225c.084375.0799.1125.2237.065625.31957l-.646875 1.30227c-.046875.0959-.05625.25565-.00938.35952l.178125.40745c.15.34354.403125.64714.740625.87883l.628125.43143c.09375.0639.2625.0879.375.0399l1.9875001-.80692c.1125-.0479.2812501-.14381.3750001-.21571l1.425-1.09454c.20625-.15979.215625-.43143.02813-.6072l-2.9906252-1.7177c-.103125-.0559-.140625-.18376-.084375-.27963l1.3125001-2.10919c.05625-.0959.065625-.24767.01875-.34354l-.159375-.31159c-.046875-.0959-.1875-.20772-.3-.24767L5.5512518 6.37206c-.1125-.0399-.1125-.0799.00937-.0879l2.484375-.19973c.121875-.008.31875.008.440625.032l2.2125002.52729c.121875.032.196875.13582.178125.23968l-.76875 3.58722c-.01875.10386-.01875.24767.0094.32756.02812.0799.15.1518.271875.17577l1.5375.27963c.121875.024.31875.024.440625 0l1.434375-.27963c.121875-.024.24375-.10386.271875-.17577.02813-.0719.0375-.2237.0094-.32756l-.759375-3.58722c-.01875-.10386.05625-.21571.178125-.23968l2.2125-.52729c.121875-.032.31875-.0399.440625-.032l2.484375.19973c.121875.008.13125.0479.0094.0879L14.795072 7.6184c-.1125.0399-.253125.14381-.3.24767l-.159375.31159c-.04687.0959-.04687.25566.01875.34354l1.321875 2.10919c.05625.0959.01875.21571-.08437.27962l-2.990625 1.7257c-.196875.16778-.178125.44741.02812.60719l1.425 1.09454c.09375.0719.2625.16778.375.20773l1.996875.80692c.1125.0479.28125.024.375-.0399l.628125-.43941c.3375-.23169.590625-.53529.73125-.87883l.178125-.40745c.04687-.0959.0375-.26365-.0094-.35953l-.646875-1.30226c-.04687-.0959-.01875-.23968.06562-.31957l3.103125-2.81225c.08437-.0799.215625-.20773.3-.28762-.01875-.024.15-.19973.20625-.39148z" fill="#fff"/></svg>